# Blender 5.1.1
# www.blender.org
mtllib Porygon.mtl
o defaultMaterial
v 0.153116 0.611466 0.268660
v 0.174838 0.678946 0.082438
v 0.119444 0.762784 0.118381
v 0.115427 0.679596 0.298653
v 0.119444 0.762784 0.118381
v 0.086985 0.742712 0.203557
v 0.115427 0.679596 0.298653
v 0.174838 0.678946 0.082438
v 0.153116 0.611466 0.268660
v 0.177437 0.584288 0.153014
v -0.119444 0.762784 0.118381
v -0.174838 0.678946 0.082438
v -0.153116 0.611466 0.268660
v -0.115427 0.679596 0.298653
v -0.153116 0.611466 0.268660
v -0.174838 0.678946 0.082438
v -0.177437 0.584288 0.153014
v -0.115427 0.679596 0.298653
v -0.086985 0.742712 0.203557
v -0.119444 0.762784 0.118381
vn 0.8708 0.4301 0.2380
vn 0.8708 0.4302 0.2380
vn 0.4941 0.7852 0.3733
vn 0.9737 0.1527 0.1689
vn -0.8708 0.4301 0.2380
vn -0.8708 0.4302 0.2380
vn -0.9737 0.1527 0.1689
vn -0.4941 0.7852 0.3733
vt 0.068204 0.454313
vt 0.071887 0.571939
vt 0.352050 0.594171
vt 0.348091 0.443700
vt 0.224444 0.398514
vt 0.207239 0.676494
vt 0.071887 0.571938
s 1
usemtl other
f 4/1/1 1/2/1 2/3/2
f 2/3/2 3/4/1 4/1/1
s 0
f 5/4/3 6/5/3 7/1/3
f 8/3/4 9/2/4 10/6/4
s 1
f 14/1/5 11/4/5 12/3/6
f 12/3/6 13/7/5 14/1/5
s 0
f 15/7/7 16/3/7 17/6/7
f 18/1/8 19/5/8 20/4/8
o defaultMaterial.001
v 0.219538 0.003524 -0.297785
v 0.219538 0.003524 0.257990
v 0.219538 0.090068 0.258015
v 0.219538 0.129197 -0.297785
v 0.400843 0.000000 0.257990
v 0.400843 0.000000 -0.297785
v 0.400843 0.078424 -0.297785
v 0.400843 0.059001 0.258025
v 0.400843 0.000000 -0.297785
v 0.400843 0.000000 0.257990
v 0.219538 0.003524 0.257990
v 0.219538 0.003524 -0.297785
v 0.219538 0.003524 0.257990
v 0.400843 0.000000 0.257990
v 0.400843 0.059001 0.258025
v 0.219538 0.090068 0.258015
v 0.400843 0.078424 -0.297785
v 0.400843 0.000000 -0.297785
v 0.219538 0.003524 -0.297785
v 0.219538 0.129197 -0.297785
v 0.219538 0.257003 -0.084049
v 0.219538 0.090068 0.258015
v 0.400843 0.059001 0.258025
v 0.400843 0.182735 -0.084049
v 0.400843 0.078424 -0.297785
v 0.219538 0.129197 -0.297785
v 0.219538 0.257003 -0.084049
v 0.400843 0.182735 -0.084049
v 0.219538 0.257003 -0.084049
v 0.400843 0.182735 -0.084049
vn -1.0000 -0.0000 -0.0000
vn 1.0000 -0.0000 -0.0000
vn -0.0194 -0.9998 -0.0000
vn -0.0000 -0.0003 1.0000
vn -0.0002 -0.0006 1.0000
vn -0.0000 -0.0000 -1.0000
vn 0.2583 0.8891 0.3778
vn 0.2583 0.8892 0.3778
vn 0.2582 0.8892 0.3778
vn 0.2900 0.8410 -0.4567
vt 0.869604 0.720831
vt 0.943240 0.720838
vt 0.943269 0.395189
vt 0.892560 0.395170
vt 0.473817 0.674971
vt 0.473834 0.709542
vt 0.799483 0.709574
vt 0.799488 0.663623
vt 0.472630 0.749554
vt 0.472624 0.855783
vt 0.798273 0.855800
vt 0.798279 0.749571
vt 0.431205 0.382146
vt 0.432249 0.432845
vt 0.538455 0.430660
vt 0.537744 0.396096
vt 0.937898 0.861430
vt 0.910319 0.755173
vt 0.864367 0.755128
vt 0.864262 0.861357
vt 0.789078 0.531557
vt 0.804354 0.418906
vt 0.582084 0.424538
vt 0.576586 0.531517
vt 0.546029 0.601030
vt 0.546046 0.461808
vt 0.437044 0.473926
vt 0.433642 0.619665
vt 0.794729 0.595589
vt 0.674258 0.602490
s 0
usemtl other
f 24/8/9 21/9/9 22/10/9
f 22/10/9 23/11/9 24/8/9
f 28/12/10 25/13/10 26/14/10
f 26/14/10 27/15/10 28/12/10
f 32/16/11 29/17/11 30/18/11
f 30/18/11 31/19/11 32/16/11
f 36/20/12 33/21/12 34/22/12
f 34/22/13 35/23/13 36/20/13
f 40/24/14 37/25/14 38/26/14
f 38/26/14 39/27/14 40/24/14
s 1
f 44/28/15 41/29/15 42/30/16
f 42/30/16 43/31/17 44/28/15
f 48/32/18 45/33/18 46/34/18
f 46/34/18 47/35/18 48/32/18
s 0
f 24/8/9 23/11/9 49/36/9
f 28/12/10 27/15/10 50/37/10
o defaultMaterial.002
v 0.122765 0.056695 -0.258887
v -0.122765 0.056695 -0.258887
v -0.122765 0.056875 -0.348251
v 0.122765 0.056875 -0.348251
v 0.075107 0.272723 -0.298543
v -0.075107 0.272723 -0.298543
v -0.122765 0.056695 -0.258887
v 0.122765 0.056695 -0.258887
v -0.075107 0.272723 -0.298543
v 0.075107 0.272723 -0.298543
v 0.018180 0.559780 -0.700519
v -0.018180 0.559780 -0.700519
v 0.018071 0.532250 -0.732363
v 0.122765 0.056875 -0.348251
v -0.122765 0.056875 -0.348251
v -0.018071 0.532250 -0.732363
v -0.018180 0.559780 -0.700519
v 0.018180 0.559780 -0.700519
v 0.018071 0.532250 -0.732363
v -0.018071 0.532250 -0.732363
v -0.075107 0.272723 -0.298543
v -0.122765 0.056875 -0.348251
v -0.122765 0.056695 -0.258887
v -0.018071 0.532250 -0.732363
v -0.018180 0.559780 -0.700519
v 0.018071 0.532250 -0.732363
v 0.018180 0.559780 -0.700519
v 0.075107 0.272723 -0.298543
v 0.122765 0.056875 -0.348251
v 0.122765 0.056695 -0.258887
vn -0.0000 -1.0000 -0.0020
vn -0.0000 0.1806 0.9836
vn -0.0000 0.8138 0.5811
vn -0.0000 -0.6285 -0.7778
vn -0.0000 0.7565 -0.6540
vn -0.9805 0.1962 -0.0115
vn -0.9799 0.1993 -0.0096
vn -0.9765 0.2155 0.0004
vn -0.9806 0.1956 -0.0119
vn -0.9806 0.1956 -0.0120
vn 0.9799 0.1993 -0.0096
vn 0.9806 0.1956 -0.0120
vn 0.9806 0.1956 -0.0119
vn 0.9805 0.1962 -0.0115
vn 0.9765 0.2155 0.0004
vt 0.155572 0.110988
vt 0.103211 0.110995
vt 0.103229 0.254860
vt 0.155591 0.254853
vt 0.305296 0.112812
vt 0.176579 0.140629
vt 0.176505 0.228645
vt 0.305175 0.256678
vt 0.662142 0.301222
vt 0.950579 0.342244
vt 0.952914 0.254259
vt 0.662707 0.279925
vt 0.681115 0.239041
vt 0.681116 0.217865
vt 0.323014 0.156502
vt 0.323007 0.300368
vt 0.922703 0.227170
vt 0.947367 0.227233
vt 0.947366 0.205929
vt 0.922702 0.205994
vt 0.838720 0.213290
vt 0.922305 0.110267
vt 0.954798 0.151284
vt 0.558333 0.134873
vt 0.559225 0.110240
s 0
usemtl other
f 54/38/19 51/39/19 52/40/19
f 52/40/19 53/41/19 54/38/19
s 1
f 58/42/20 55/43/20 56/44/20
s 0
f 56/44/20 57/45/20 58/42/20
s 1
f 62/46/21 59/47/21 60/48/21
f 60/48/21 61/49/21 62/46/21
s 0
f 66/50/22 63/51/22 64/52/22
f 64/52/22 65/53/22 66/50/22
f 70/54/23 67/55/23 68/56/23
f 68/56/23 69/57/23 70/54/23
s 1
f 71/58/24 72/59/25 73/60/26
f 75/61/27 74/62/28 72/59/25
f 72/59/25 71/58/24 75/61/27
f 79/59/29 76/62/30 77/61/31
f 77/61/31 78/58/32 79/59/29
f 78/58/32 80/60/33 79/59/29
o defaultMaterial.003
v -0.219538 0.003524 -0.297785
v -0.219538 0.129197 -0.297785
v -0.219538 0.090068 0.258015
v -0.219538 0.003524 0.257990
v -0.400843 0.000000 0.257990
v -0.400843 0.059001 0.258025
v -0.400843 0.078424 -0.297785
v -0.400843 0.000000 -0.297785
v -0.400843 0.000000 -0.297785
v -0.219538 0.003524 -0.297785
v -0.219538 0.003524 0.257990
v -0.400843 0.000000 0.257990
v -0.219538 0.003524 0.257990
v -0.219538 0.090068 0.258015
v -0.400843 0.059001 0.258025
v -0.400843 0.000000 0.257990
v -0.400843 0.078424 -0.297785
v -0.219538 0.129197 -0.297785
v -0.219538 0.003524 -0.297785
v -0.400843 0.000000 -0.297785
v -0.219538 0.257003 -0.084049
v -0.400843 0.182735 -0.084049
v -0.400843 0.059001 0.258025
v -0.219538 0.090068 0.258015
v -0.400843 0.078424 -0.297785
v -0.400843 0.182735 -0.084049
v -0.219538 0.257003 -0.084049
v -0.219538 0.129197 -0.297785
v -0.219538 0.257003 -0.084049
v -0.400843 0.182735 -0.084049
vn 1.0000 -0.0000 -0.0000
vn -1.0000 -0.0000 -0.0000
vn 0.0194 -0.9998 -0.0000
vn -0.0000 -0.0003 1.0000
vn 0.0002 -0.0006 1.0000
vn -0.0000 -0.0000 -1.0000
vn -0.2583 0.8892 0.3778
vn -0.2583 0.8891 0.3778
vn -0.2582 0.8892 0.3778
vn -0.2900 0.8410 -0.4567
vt 0.943269 0.395189
vt 0.943240 0.720838
vt 0.869604 0.720831
vt 0.892560 0.395170
vt 0.799483 0.709574
vt 0.473834 0.709542
vt 0.473817 0.674971
vt 0.799488 0.663623
vt 0.798273 0.855800
vt 0.472624 0.855783
vt 0.472630 0.749554
vt 0.798279 0.749571
vt 0.538455 0.430660
vt 0.432249 0.432845
vt 0.431205 0.382146
vt 0.537744 0.396096
vt 0.864367 0.755128
vt 0.910319 0.755173
vt 0.937898 0.861430
vt 0.864262 0.861357
vt 0.582084 0.424538
vt 0.804354 0.418906
vt 0.789078 0.531557
vt 0.576586 0.531517
vt 0.437044 0.473926
vt 0.546046 0.461808
vt 0.546029 0.601030
vt 0.433642 0.619665
vt 0.794729 0.595589
vt 0.674258 0.602490
s 0
usemtl other
f 84/63/34 81/64/34 82/65/34
f 82/65/34 83/66/34 84/63/34
f 88/67/35 85/68/35 86/69/35
f 86/69/35 87/70/35 88/67/35
f 92/71/36 89/72/36 90/73/36
f 90/73/36 91/74/36 92/71/36
f 96/75/37 93/76/37 94/77/37
f 94/77/38 95/78/38 96/75/38
f 100/79/39 97/80/39 98/81/39
f 98/81/39 99/82/39 100/79/39
s 1
f 104/83/40 101/84/41 102/85/40
f 102/85/40 103/86/42 104/83/40
f 108/87/43 105/88/43 106/89/43
f 106/89/43 107/90/43 108/87/43
s 0
f 82/65/34 109/91/34 83/66/34
f 86/69/35 110/92/35 87/70/35
o defaultMaterial.004
v 0.115427 0.679596 0.298653
v 0.086985 0.742712 0.203557
v -0.086985 0.742712 0.203557
v -0.115427 0.679596 0.298653
v -0.101703 0.597455 0.414841
v 0.101703 0.597455 0.414841
v 0.119444 0.762784 0.118381
v 0.087274 0.804437 -0.063206
v -0.087274 0.804437 -0.063206
v -0.119444 0.762784 0.118381
v 0.086985 0.742712 0.203557
v 0.119444 0.762784 0.118381
v -0.119444 0.762784 0.118381
v -0.086985 0.742712 0.203557
v -0.138539 0.436737 0.342271
v 0.138539 0.436737 0.342271
v 0.073099 0.429278 0.547570
v -0.073099 0.429278 0.547570
v -0.073099 0.429278 0.547570
v 0.073099 0.429278 0.547570
v 0.062968 0.438478 0.561312
v -0.062968 0.438478 0.561312
v -0.062968 0.438478 0.561312
v 0.062968 0.438478 0.561312
v 0.101703 0.597455 0.414841
v -0.101703 0.597455 0.414841
v -0.087274 0.804437 -0.063206
v 0.087274 0.804437 -0.063206
v 0.207859 0.669429 -0.092681
v -0.207859 0.669429 -0.092681
v 0.201646 0.536255 -0.059140
v -0.201646 0.536255 -0.059140
v -0.207859 0.669429 -0.092681
v 0.207859 0.669429 -0.092681
v -0.180157 0.441480 0.211707
v 0.180157 0.441480 0.211707
v 0.138539 0.436737 0.342271
v -0.138539 0.436737 0.342271
v -0.201646 0.536255 -0.059140
v 0.201646 0.536255 -0.059140
v 0.180157 0.441480 0.211707
v -0.180157 0.441480 0.211707
v 0.177437 0.584288 0.153014
v 0.201646 0.536255 -0.059140
v 0.174838 0.678946 0.082438
v 0.180157 0.441480 0.211707
v 0.153116 0.611466 0.268660
v 0.207859 0.669429 -0.092681
v 0.138539 0.436737 0.342271
v 0.134049 0.556544 0.380846
v -0.177437 0.584288 0.153014
v -0.174838 0.678946 0.082438
v -0.201646 0.536255 -0.059140
v -0.180157 0.441480 0.211707
v -0.153116 0.611466 0.268660
v -0.207859 0.669429 -0.092681
v -0.138539 0.436737 0.342271
v -0.134049 0.556544 0.380846
v 0.073099 0.429278 0.547570
v 0.134049 0.556544 0.380846
v 0.101703 0.597455 0.414841
v 0.062968 0.438478 0.561312
v 0.134049 0.556544 0.380846
v 0.153116 0.611466 0.268660
v 0.115427 0.679596 0.298653
v 0.101703 0.597455 0.414841
v 0.087274 0.804437 -0.063206
v 0.119444 0.762784 0.118381
v 0.174838 0.678946 0.082438
v 0.207859 0.669429 -0.092681
v -0.101703 0.597455 0.414841
v -0.134049 0.556544 0.380846
v -0.073099 0.429278 0.547570
v -0.062968 0.438478 0.561312
v -0.115427 0.679596 0.298653
v -0.153116 0.611466 0.268660
v -0.134049 0.556544 0.380846
v -0.101703 0.597455 0.414841
v -0.174838 0.678946 0.082438
v -0.119444 0.762784 0.118381
v -0.087274 0.804437 -0.063206
v -0.207859 0.669429 -0.092681
v 0.138539 0.436737 0.342271
v 0.134049 0.556544 0.380846
v 0.073099 0.429278 0.547570
v -0.138539 0.436737 0.342271
v -0.073099 0.429278 0.547570
v -0.134049 0.556544 0.380846
vn -0.0000 0.8233 0.5676
vn -0.0000 0.8332 0.5530
vn -0.0000 0.8166 0.5773
vn -0.0000 0.9743 0.2252
vn -0.0000 0.9747 0.2236
vn -0.0000 0.9733 0.2294
vn -0.0000 0.9743 0.2253
vn -0.0000 -0.9993 -0.0363
vn -0.0000 -0.8310 0.5563
vn -0.0000 0.6776 0.7354
vn -0.0000 0.2133 -0.9770
vn -0.0000 -0.2442 -0.9697
vn -0.0000 -0.9439 -0.3303
vn 0.9901 0.0768 0.1176
vn 0.9898 0.0423 0.1357
vn 0.9903 0.0633 0.1237
vn 0.9802 0.0455 0.1928
vn 0.9717 0.0409 0.2325
vn 0.9827 0.0008 0.1853
vn 0.9685 0.0236 0.2479
vn -0.9901 0.0768 0.1176
vn -0.9903 0.0633 0.1237
vn -0.9898 0.0423 0.1357
vn -0.9802 0.0455 0.1928
vn -0.9717 0.0409 0.2325
vn -0.9827 0.0008 0.1853
vn -0.9685 0.0236 0.2479
vn 0.8374 0.2437 0.4893
vn 0.8693 0.3587 0.3401
vn 0.7863 0.6152 0.0573
vn 0.7863 0.6151 0.0573
vn -0.8374 0.2437 0.4893
vn -0.8693 0.3587 0.3401
vn -0.7863 0.6152 0.0573
vn -0.7863 0.6151 0.0573
vn 0.9516 -0.0613 0.3011
vn -0.9516 -0.0613 0.3011
vt 0.044626 0.708440
vt 0.174256 0.708435
vt 0.158282 0.644346
vt 0.060594 0.644350
vt 0.166553 0.788335
vt 0.052336 0.788340
vt 0.077776 0.539068
vt 0.211917 0.539068
vt 0.193853 0.434455
vt 0.095841 0.434454
vt 0.176507 0.595208
vt 0.042366 0.595211
vt 0.241050 0.746735
vt 0.204302 0.862090
vt 0.359888 0.862093
vt 0.323143 0.746736
vt 0.250455 0.719196
vt 0.244768 0.728483
vt 0.326861 0.728470
vt 0.321171 0.719185
vt 0.051273 0.802476
vt 0.073024 0.923858
vt 0.143740 0.923858
vt 0.165491 0.802476
vt 0.024492 0.332172
vt 0.092191 0.409780
vt 0.190203 0.409796
vt 0.257928 0.332212
vt 0.264588 0.306365
vt 0.261099 0.229249
vt 0.034641 0.229249
vt 0.031153 0.306365
vt 0.205890 0.885205
vt 0.182509 0.958565
vt 0.384834 0.958596
vt 0.361476 0.885230
vt 0.044783 0.040670
vt 0.032730 0.201800
vt 0.259188 0.201781
vt 0.247107 0.040653
vt 0.525764 0.601707
vt 0.629979 0.536670
vt 0.580460 0.639154
vt 0.468471 0.536671
vt 0.468461 0.638431
vt 0.672968 0.600745
vt 0.397899 0.631316
vt 0.395348 0.560673
vt 0.468461 0.638430
vt 0.397899 0.631315
vt 0.409549 0.793663
vt 0.398978 0.791049
vt 0.376963 0.670398
vt 0.411919 0.670376
vt 0.509157 0.775128
vt 0.475283 0.766523
vt 0.472910 0.695626
vt 0.519753 0.695577
vt 0.547875 0.834810
vt 0.445077 0.834778
vt 0.457078 0.940064
vt 0.515974 0.929614
vt 0.509071 0.775123
vt 0.519752 0.695584
vt 0.472911 0.695582
vt 0.475206 0.766481
vt 0.547875 0.834805
vt 0.515980 0.929610
vt 0.457084 0.940064
vt 0.304163 0.419870
vt 0.233442 0.419862
vt 0.271516 0.536453
s 1
usemtl main
f 114/93/44 111/94/44 112/95/45
f 112/95/45 113/96/45 114/93/44
f 116/97/46 111/94/44 114/93/44
f 114/93/44 115/98/46 116/97/46
f 120/99/47 117/100/47 118/101/48
f 118/101/48 119/102/48 120/99/47
f 124/96/49 121/95/49 122/103/50
f 122/103/50 123/104/50 124/96/49
s 0
f 128/105/51 125/106/51 126/107/51
f 126/107/51 127/108/51 128/105/51
f 132/109/52 129/110/52 130/111/52
f 130/111/52 131/112/52 132/109/52
f 136/113/53 133/114/53 134/115/53
f 134/115/53 135/116/53 136/113/53
f 140/117/54 137/118/54 138/119/54
f 138/119/54 139/120/54 140/117/54
f 144/121/55 141/122/55 142/123/55
f 142/123/55 143/124/55 144/121/55
f 148/125/51 145/126/51 146/127/51
f 146/127/51 147/128/51 148/125/51
f 152/129/56 149/130/56 150/131/56
f 150/131/56 151/132/56 152/129/56
s 1
f 153/133/57 154/134/58 155/135/59
f 153/133/57 156/136/60 154/134/58
f 153/133/57 157/137/61 156/136/60
f 155/135/59 154/134/58 158/138/62
f 160/139/63 159/140/63 156/136/60
f 156/136/60 157/137/61 160/139/63
f 161/133/64 162/135/65 163/134/66
f 161/133/64 163/134/66 164/136/67
f 161/133/64 164/136/67 165/141/68
f 162/135/65 166/138/69 163/134/66
f 168/142/70 165/141/68 164/136/67
f 164/136/67 167/140/70 168/142/70
f 172/143/71 169/144/71 170/145/71
f 170/145/71 171/146/71 172/143/71
f 176/147/72 173/148/72 174/149/72
f 174/149/72 175/150/72 176/147/72
f 180/151/73 177/152/73 178/153/73
f 178/153/73 179/154/74 180/151/73
f 184/143/75 181/146/75 182/145/75
f 182/145/75 183/144/75 184/143/75
f 188/155/76 185/156/76 186/157/76
f 186/157/76 187/158/76 188/155/76
f 192/159/77 189/160/78 190/161/77
f 190/161/77 191/152/77 192/159/77
s 0
f 193/162/79 194/163/79 195/164/79
f 196/162/80 197/164/80 198/163/80
o defaultMaterial.005
v -0.133902 0.437043 0.211707
v 0.133902 0.437043 0.211707
v 0.113332 0.488858 0.063630
v -0.113332 0.488858 0.063630
v 0.113332 0.488858 0.063630
v 0.133902 0.437043 0.211707
v 0.181047 0.316760 0.149559
v 0.181047 0.316760 -0.305445
v 0.215087 0.230064 -0.291471
v 0.215091 0.230064 0.281513
v -0.215087 0.230064 -0.291471
v 0.215087 0.230064 -0.291471
v 0.161196 0.048366 -0.257535
v -0.161196 0.048366 -0.257535
v 0.161196 0.048366 -0.257535
v 0.161196 0.048366 0.137857
v -0.161196 0.048366 0.137857
v -0.161196 0.048366 -0.257535
v -0.113332 0.488858 0.063630
v 0.113332 0.488858 0.063630
v 0.181047 0.316760 -0.305445
v -0.181047 0.316760 -0.305445
v -0.181047 0.316760 -0.305445
v 0.181047 0.316760 -0.305445
v 0.215087 0.230064 -0.291471
v -0.215087 0.230064 -0.291471
v -0.161196 0.048366 0.137857
v 0.161196 0.048366 0.137857
v 0.215091 0.230064 0.281513
v -0.215091 0.230064 0.281513
v 0.133902 0.437043 0.211707
v -0.133902 0.437043 0.211707
v -0.215091 0.230064 0.281513
v 0.215091 0.230064 0.281513
v -0.181047 0.316760 0.149559
v -0.133902 0.437043 0.211707
v -0.113332 0.488858 0.063630
v -0.181047 0.316760 -0.305445
v -0.215087 0.230064 -0.291471
v -0.215091 0.230064 0.281513
v 0.161196 0.048366 0.137857
v 0.161196 0.048366 -0.257535
v 0.215087 0.230064 -0.291471
v 0.215091 0.230064 0.281513
v -0.161196 0.048366 0.137857
v -0.215091 0.230064 0.281513
v -0.215087 0.230064 -0.291471
v -0.161196 0.048366 -0.257535
v 0.215091 0.230064 0.281513
v 0.181047 0.316760 0.149559
v 0.133902 0.437043 0.211707
v -0.215091 0.230064 0.281513
v -0.133902 0.437043 0.211707
v -0.181047 0.316760 0.149559
vn -0.0000 0.9439 0.3303
vn 0.9308 0.3656 -0.0001
vn 0.9306 0.3660 -0.0003
vn 0.9306 0.3659 -0.0003
vn 0.9308 0.3655 -0.0000
vn 0.9307 0.3658 -0.0002
vn -0.0000 -0.1836 -0.9830
vn -0.0000 -1.0000 -0.0000
vn -0.0000 0.9063 -0.4226
vn -0.0000 -0.1591 -0.9873
vn -0.0000 -0.6202 0.7844
vn -0.0000 0.3196 0.9476
vn -0.9307 0.3657 -0.0001
vn -0.9308 0.3656 -0.0001
vn -0.9306 0.3659 -0.0003
vn -0.9306 0.3660 -0.0003
vn -0.9308 0.3655 -0.0000
vn -0.9307 0.3658 -0.0002
vn 0.9587 -0.2844 -0.0000
vn -0.9587 -0.2844 -0.0000
vn 0.9310 0.3651 -0.0003
vn -0.9310 0.3651 -0.0003
vt 0.566713 0.206062
vt 0.654718 0.218260
vt 0.655823 0.067885
vt 0.567648 0.078788
vt 0.582160 0.726651
vt 0.789540 0.623075
vt 0.872648 0.654488
vt 0.837655 0.726987
vt 0.911681 0.779385
vt 0.589938 0.778961
vt 0.576678 0.484570
vt 0.680459 0.514866
vt 0.680542 0.273313
vt 0.576739 0.303539
vt 0.557654 0.487807
vt 0.557685 0.306776
vt 0.335664 0.306737
vt 0.335632 0.487768
vt 0.324555 0.240012
vt 0.553227 0.202011
vt 0.553239 0.074734
vt 0.324575 0.036688
vt 0.705845 0.511369
vt 0.755156 0.492256
vt 0.755162 0.288932
vt 0.705852 0.269816
vt 0.823032 0.259497
vt 0.953092 0.229219
vt 0.953072 0.048188
vt 0.823004 0.017940
vt 0.799082 0.023305
vt 0.676432 0.068911
vt 0.676453 0.219290
vt 0.799114 0.264863
vt 0.582160 0.726652
vt 0.872647 0.654488
vt 0.911681 0.779384
vt 0.589938 0.778962
vt 0.922387 0.808682
vt 0.841711 0.915096
vt 0.619689 0.915076
vt 0.600643 0.808653
vt 0.619634 0.915053
vt 0.841656 0.915147
vt 0.922368 0.808760
vt 0.600623 0.808624
vt 0.934168 0.623618
vt 0.881776 0.697648
vt 0.938883 0.754386
vt 0.938884 0.754386
s 0
usemtl main
f 202/165/81 199/166/81 200/167/81
f 200/167/81 201/168/81 202/165/81
s 1
f 206/169/82 203/170/83 204/171/84
f 204/171/84 205/172/82 206/169/82
s 0
f 208/173/85 207/174/85 206/169/85
f 206/169/86 205/172/85 208/173/85
f 212/175/87 209/176/87 210/177/87
f 210/177/87 211/178/87 212/175/87
f 216/179/88 213/180/88 214/181/88
f 214/181/88 215/182/88 216/179/88
f 220/183/89 217/184/89 218/185/89
f 218/185/89 219/186/89 220/183/89
f 224/187/90 221/188/90 222/189/90
f 222/189/90 223/190/90 224/187/90
f 228/191/91 225/192/91 226/193/91
f 226/193/91 227/194/91 228/191/91
f 232/195/92 229/196/92 230/197/92
f 230/197/92 231/198/92 232/195/92
s 1
f 236/199/93 233/172/94 234/200/95
f 234/200/95 235/170/96 236/199/93
s 0
f 238/201/97 233/172/97 236/199/98
f 236/199/97 237/202/97 238/201/97
f 242/203/99 239/204/99 240/205/99
f 240/205/99 241/206/99 242/203/99
f 246/207/100 243/208/100 244/209/100
f 244/209/100 245/210/100 246/207/100
f 247/211/101 248/212/101 249/213/101
f 250/211/102 251/214/102 252/212/102
